Coordinates
version=1
nRows=26
nColumns=24
inDegrees=yes

Units are S.I. units (second, meters, Newtons, ...)
Angles are in degrees.

endheader
time	pelvis_tilt	pelvis_list	pelvis_rotation	pelvis_tx	pelvis_ty	pelvis_tz	hip_flexion_r	hip_adduction_r	hip_rotation_r	knee_angle_r	ankle_angle_r	subtalar_angle_r	mtp_angle_r	hip_flexion_l	hip_adduction_l	hip_rotation_l	knee_angle_l	ankle_angle_l	subtalar_angle_l	mtp_angle_l	lumbar_extension	lumbar_bending	lumbar_rotation
      4.11000000	      1.38741122	     -6.56657531	     -7.47582653	     -2.96260882	      0.87719908	      0.16176446	    -18.57343878	      8.16381353	      7.67891650	    -13.59485633	     16.63541814	      0.67608825	      0.00000000	     22.87729630	     -7.48127658	     -1.66393510	     -5.24786510	      0.87457750	      0.58202726	      0.00000000	    -21.69205141	      6.14129033	     10.96632897
      4.12000000	      1.48049273	     -6.15924599	     -7.88345959	     -2.94795402	      0.87688732	      0.16094866	    -19.06655125	      7.41186167	      7.89092108	    -14.47697710	     15.78497973	      0.64655336	      0.00000000	     22.33132737	     -7.01114998	     -1.94352250	     -5.95831839	      0.10448726	     -0.48293844	      0.00000000	    -21.46784120	      5.53437829	     10.80300359
      4.13000000	      1.52505291	     -5.66493834	     -8.14568240	     -2.93319955	      0.87660295	      0.15992403	    -19.35203688	      6.64590747	      7.98086489	    -15.57541401	     14.75125799	      0.51694428	      0.00000000	     21.83387485	     -6.35748485	     -1.67176330	     -6.67625380	     -1.14892931	     -2.37363161	      0.00000000	    -21.14013889	      4.88620574	     10.41696006
      4.14000000	      1.69007275	     -5.06476081	     -8.32007983	     -2.91848229	      0.87668285	      0.15883341	    -19.55781126	      5.80806098	      7.92225732	    -16.96092276	     13.49012505	      0.40785649	      0.00000000	     21.31333173	     -5.54738368	     -1.45622797	     -7.58401338	     -2.30114619	     -4.13894676	      0.00000000	    -20.95062192	      4.10329471	      9.93260006
      4.15000000	      1.85802705	     -4.39839848	     -8.36436753	     -2.90393762	      0.87696304	      0.15764838	    -19.51030279	      4.99000973	      7.69760413	    -18.71860071	     11.98496989	      0.13803244	      0.00000000	     20.96279044	     -4.61973936	     -1.13591430	     -8.77322677	     -3.22340681	     -5.85753631	      0.00000000	    -20.78391594	      3.26303896	      9.33293631
      4.16000000	      2.07901347	     -3.68814000	     -8.28980485	     -2.88961738	      0.87754484	      0.15644127	    -19.26347037	      4.20813534	      7.34031375	    -20.84314329	     10.14253483	     -0.25853518	      0.00000000	     20.73668153	     -3.61603050	     -0.89711337	    -10.27109595	     -3.55412601	     -7.04322053	      0.00000000	    -20.71660527	      2.36211947	      8.65919470
      4.17000000	      2.31192029	     -2.97978099	     -8.12004267	     -2.87559881	      0.87834991	      0.15524296	    -18.72305548	      3.48319435	      6.72844130	    -23.41538388	      8.12018738	     -0.54367954	      0.00000000	     20.65113970	     -2.61040142	     -0.84970220	    -12.03752229	     -3.20812918	     -7.53728613	      0.00000000	    -20.72792573	      1.45362766	      7.97126767
      4.18000000	      2.50587088	     -2.36394789	     -7.86173400	     -2.86190407	      0.87926406	      0.15406486	    -17.91455860	      2.94427474	      6.18527836	    -26.30603643	      5.75310808	     -1.23288174	      0.00000000	     20.65355453	     -1.68314012	     -0.70519124	    -13.91152532	     -2.34077575	     -7.76357427	      0.00000000	    -20.77623252	      0.65542354	      7.31282987
      4.19000000	      2.72231966	     -1.79937345	     -7.62562501	     -2.84854891	      0.88034882	      0.15302388	    -16.85424200	      2.45827145	      5.59108882	    -29.56085693	      3.42587644	     -1.88888806	      0.00000000	     20.60861681	     -0.86208306	     -0.90764668	    -15.76647845	     -0.87998690	     -7.23902941	      0.00000000	    -20.93642059	     -0.12088584	      6.77803984
      4.20000000	      2.88305493	     -1.33627405	     -7.40097861	     -2.83553544	      0.88146231	      0.15201182	    -15.50416335	      2.07601230	      4.98935137	    -33.08238847	      1.28405210	     -2.46803715	      0.00000000	     20.47900570	     -0.15356460	     -1.02286443	    -17.38268045	      0.73064325	     -6.69434192	      0.00000000	    -21.11651395	     -0.77504849	      6.33706403
      4.21000000	      3.07364831	     -0.88706786	     -7.31204677	     -2.82283069	      0.88270607	      0.15117217	    -13.98071616	      1.65627448	      4.50252400	    -36.78483281	     -0.41975397	     -2.94328775	      0.00000000	     20.12987737	      0.48175851	     -1.35196108	    -18.67141792	      2.42151521	     -5.96841838	      0.00000000	    -21.39036789	     -1.45666413	      6.08575398
      4.22000000	      3.25841149	     -0.48980737	     -7.35719265	     -2.81043537	      0.88403734	      0.15045482	    -12.30290947	      1.24871052	      4.16784198	    -40.54269639	     -1.55112786	     -3.27410471	      0.00000000	     19.56615324	      1.03246620	     -1.70410960	    -19.56410955	      4.03720044	     -5.32864206	      0.00000000	    -21.70642136	     -2.09859510	      6.02342221
      4.23000000	      3.43150968	     -0.13573193	     -7.53854215	     -2.79829792	      0.88545798	      0.14985946	    -10.52474008	      0.86455065	      4.02489058	    -44.22318850	     -2.10566332	     -3.44287185	      0.00000000	     18.82329506	      1.50949904	     -2.12222891	    -20.10113920	      5.45168063	     -4.86518176	      0.00000000	    -22.03002148	     -2.70134071	      6.05557399
      4.24000000	      3.59826381	      0.15394224	     -7.83707667	     -2.78637884	      0.88699861	      0.14938562	     -8.70535936	      0.54900492	      4.06501877	    -47.70759626	     -2.12525170	     -3.46984876	      0.00000000	     17.92725495	      1.90216883	     -2.59063550	    -20.33639338	      6.66145385	     -4.56665745	      0.00000000	    -22.34903521	     -3.23449009	      6.14142239
      4.25000000	      3.73407942	      0.32755472	     -8.18432787	     -2.77464570	      0.88864102	      0.14899189	     -6.86906054	      0.37625540	      4.18205242	    -50.89259788	     -1.61626475	     -3.40320316	      0.00000000	     16.96409161	      2.16623191	     -3.07372162	    -20.39284486	      7.81611494	     -4.18191727	      0.00000000	    -22.62616986	     -3.62119307	      6.32238137
      4.26000000	      3.84296216	      0.38384400	     -8.54768301	     -2.76305859	      0.89041428	      0.14867547	     -5.05301145	      0.37400309	      4.36228293	    -53.71681593	     -0.82141719	     -3.27194697	      0.00000000	     15.96529998	      2.30175677	     -3.59130146	    -20.33200648	      8.85428791	     -3.79805235	      0.00000000	    -22.85727357	     -3.85369267	      6.44974012
      4.27000000	      3.91743682	      0.34310039	     -8.84581919	     -2.75157251	      0.89228417	      0.14832232	     -3.26531808	      0.50561054	      4.45384840	    -56.15556430	      0.28697671	     -3.01787980	      0.00000000	     14.93764128	      2.38426150	     -3.87467260	    -20.14209296	      9.63185589	     -3.72108896	      0.00000000	    -23.02808721	     -3.93021472	      6.48850000
      4.28000000	      3.93199616	      0.17468077	     -8.97429586	     -2.74016511	      0.89417019	      0.14783876	     -1.50714687	      0.79977130	      4.32466423	    -58.18070541	      1.53662062	     -2.77557254	      0.00000000	     14.00669677	      2.34705785	     -4.06707303	    -20.02442756	     10.49879102	     -3.37291976	      0.00000000	    -23.11753815	     -3.76885217	      6.37952787
      4.29000000	      3.93378947	     -0.04441427	     -8.97512291	     -2.72880298	      0.89610406	      0.14729129	      0.18908283	      1.15396114	      4.02042504	    -59.82298887	      2.74088713	     -2.54759534	      0.00000000	     13.05131221	      2.29938250	     -4.01032449	    -19.82101108	     11.24015342	     -3.22246095	      0.00000000	    -23.17012734	     -3.51073258	      6.10060012
      4.30000000	      3.89272422	     -0.25964225	     -8.81584304	     -2.71747288	      0.89794724	      0.14662727	      1.86774773	      1.48232526	      3.47467509	    -61.11027385	      3.99486874	     -2.44430682	      0.00000000	     12.16696267	      2.25671995	     -3.90861363	    -19.62930211	     11.89217061	     -2.95348672	      0.00000000	    -23.13548103	     -3.18353572	      5.62549582
      4.31000000	      3.85417853	     -0.44845409	     -8.52189343	     -2.70616222	      0.89971872	      0.14586250	      3.48895926	      1.73961401	      2.72945760	    -62.07043472	      5.13349729	     -2.45694820	      0.00000000	     11.25447468	      2.27138370	     -3.60672341	    -19.35773461	     12.51150605	     -2.73809372	      0.00000000	    -23.07336911	     -2.84360358	      4.98353312
      4.32000000	      3.81695961	     -0.57187248	     -8.13519238	     -2.69487040	      0.90136743	      0.14502973	      5.06815485	      1.87132059	      1.83453610	    -62.73744788	      6.20188419	     -2.59215009	      0.00000000	     10.30637848	      2.36877636	     -3.18018433	    -18.98050661	     13.03849941	     -2.59391176	      0.00000000	    -22.97797686	     -2.54714672	      4.20845186
      4.33000000	      3.77720077	     -0.61815446	     -7.70377922	     -2.68360581	      0.90285684	      0.14417110	      6.61574872	      1.86665529	      0.85884248	    -63.13645762	      7.21453001	     -2.83725453	      0.00000000	      9.31225002	      2.55285935	     -2.65609828	    -18.47429610	     13.45915974	     -2.56592852	      0.00000000	    -22.85019457	     -2.32425120	      3.35957225
      4.34000000	      3.74460739	     -0.57643844	     -7.27874541	     -2.67237898	      0.90418340	      0.14333474	      8.12417477	      1.72657599	     -0.11410269	    -63.28508443	      8.15441592	     -3.20864026	      0.00000000	      8.23890669	      2.83981410	     -2.00136777	    -17.80053029	     13.72234211	     -2.83926206	      0.00000000	    -22.71024002	     -2.20686894	      2.47583393
      4.35000000	      3.71113513	     -0.53761060	     -6.84831117	     -2.66120055	      0.90538088	      0.14254097	      9.56672688	      1.57071294	     -1.07462867	    -63.14268411	      8.96958524	     -3.73321256	      0.00000000	      7.12527491	      3.09975544	     -1.35129824	    -17.04670222	     13.92968341	     -2.99970848	      0.00000000	    -22.57323044	     -2.08848552	      1.64266985
      4.36000000	      3.68800040	     -0.44664718	     -6.48839970	     -2.65009355	      0.90640907	      0.14186528	     10.95334942	      1.36426792	     -1.91091051	    -62.74837476	      9.68400438	     -4.41272200	      0.00000000	      5.95022452	      3.40563589	     -0.65440165	    -16.18054692	     14.01811838	     -3.50952462	      0.00000000	    -22.45540479	     -2.06096158	      0.84388749
